%TF.GenerationSoftware,KiCad,Pcbnew,(5.1.7)-1*%
%TF.CreationDate,2022-10-26T13:15:12+03:00*%
%TF.ProjectId,power supply,706f7765-7220-4737-9570-706c792e6b69,rev?*%
%TF.SameCoordinates,Original*%
%TF.FileFunction,Copper,L1,Top*%
%TF.FilePolarity,Positive*%
%FSLAX46Y46*%
G04 Gerber Fmt 4.6, Leading zero omitted, Abs format (unit mm)*
G04 Created by KiCad (PCBNEW (5.1.7)-1) date 2022-10-26 13:15:12*
%MOMM*%
%LPD*%
G01*
G04 APERTURE LIST*
%TA.AperFunction,ComponentPad*%
%ADD10O,1.905000X2.000000*%
%TD*%
%TA.AperFunction,ComponentPad*%
%ADD11R,1.905000X2.000000*%
%TD*%
%TA.AperFunction,ComponentPad*%
%ADD12O,1.400000X1.400000*%
%TD*%
%TA.AperFunction,ComponentPad*%
%ADD13C,1.400000*%
%TD*%
%TA.AperFunction,ComponentPad*%
%ADD14C,3.000000*%
%TD*%
%TA.AperFunction,ComponentPad*%
%ADD15R,3.000000X3.000000*%
%TD*%
%TA.AperFunction,ComponentPad*%
%ADD16C,3.800000*%
%TD*%
%TA.AperFunction,ComponentPad*%
%ADD17C,1.800000*%
%TD*%
%TA.AperFunction,ComponentPad*%
%ADD18R,1.800000X1.800000*%
%TD*%
%TA.AperFunction,ComponentPad*%
%ADD19O,2.200000X2.200000*%
%TD*%
%TA.AperFunction,ComponentPad*%
%ADD20R,2.200000X2.200000*%
%TD*%
%TA.AperFunction,ComponentPad*%
%ADD21C,1.600000*%
%TD*%
%TA.AperFunction,ComponentPad*%
%ADD22R,1.600000X1.600000*%
%TD*%
%TA.AperFunction,Conductor*%
%ADD23C,0.500000*%
%TD*%
%TA.AperFunction,Conductor*%
%ADD24C,1.000000*%
%TD*%
G04 APERTURE END LIST*
D10*
%TO.P,U1,3*%
%TO.N,Net-(C2-Pad1)*%
X146304000Y-75184000D03*
%TO.P,U1,2*%
%TO.N,Net-(C1-Pad2)*%
X143764000Y-75184000D03*
D11*
%TO.P,U1,1*%
%TO.N,Net-(C1-Pad1)*%
X141224000Y-75184000D03*
%TD*%
D12*
%TO.P,R1,2*%
%TO.N,Net-(D5-Pad2)*%
X152400000Y-78740000D03*
D13*
%TO.P,R1,1*%
%TO.N,Net-(C2-Pad1)*%
X152400000Y-73660000D03*
%TD*%
D14*
%TO.P,J2,2*%
%TO.N,Net-(C1-Pad2)*%
X151892000Y-87884000D03*
D15*
%TO.P,J2,1*%
%TO.N,Net-(C2-Pad1)*%
X151892000Y-92964000D03*
%TD*%
D14*
%TO.P,J1,2*%
%TO.N,Net-(D1-Pad1)*%
X118110000Y-82550000D03*
D15*
%TO.P,J1,1*%
%TO.N,Net-(D2-Pad1)*%
X118110000Y-87630000D03*
%TD*%
D16*
%TO.P,H4,1*%
%TO.N,N/C*%
X115316000Y-96012000D03*
%TD*%
%TO.P,H3,1*%
%TO.N,N/C*%
X158496000Y-74676000D03*
%TD*%
%TO.P,H2,1*%
%TO.N,N/C*%
X158496000Y-96012000D03*
%TD*%
%TO.P,H1,1*%
%TO.N,N/C*%
X115316000Y-74676000D03*
%TD*%
D17*
%TO.P,D5,2*%
%TO.N,Net-(D5-Pad2)*%
X150876000Y-81280000D03*
D18*
%TO.P,D5,1*%
%TO.N,Net-(C1-Pad2)*%
X150876000Y-83820000D03*
%TD*%
D19*
%TO.P,D4,2*%
%TO.N,Net-(D2-Pad1)*%
X135890000Y-92710000D03*
D20*
%TO.P,D4,1*%
%TO.N,Net-(C1-Pad1)*%
X125730000Y-92710000D03*
%TD*%
D19*
%TO.P,D3,2*%
%TO.N,Net-(D1-Pad1)*%
X135890000Y-80010000D03*
D20*
%TO.P,D3,1*%
%TO.N,Net-(C1-Pad1)*%
X125730000Y-80010000D03*
%TD*%
D19*
%TO.P,D2,2*%
%TO.N,Net-(C1-Pad2)*%
X135890000Y-86360000D03*
D20*
%TO.P,D2,1*%
%TO.N,Net-(D2-Pad1)*%
X125730000Y-86360000D03*
%TD*%
D19*
%TO.P,D1,2*%
%TO.N,Net-(C1-Pad2)*%
X135890000Y-73660000D03*
D20*
%TO.P,D1,1*%
%TO.N,Net-(D1-Pad1)*%
X125730000Y-73660000D03*
%TD*%
D21*
%TO.P,C2,2*%
%TO.N,Net-(C1-Pad2)*%
X140240000Y-83312000D03*
D22*
%TO.P,C2,1*%
%TO.N,Net-(C2-Pad1)*%
X142240000Y-83312000D03*
%TD*%
D21*
%TO.P,C1,2*%
%TO.N,Net-(C1-Pad2)*%
X143708000Y-92456000D03*
D22*
%TO.P,C1,1*%
%TO.N,Net-(C1-Pad1)*%
X140208000Y-92456000D03*
%TD*%
D23*
%TO.N,Net-(C1-Pad2)*%
X138938000Y-83312000D02*
X140240000Y-83312000D01*
X135890000Y-86360000D02*
X138938000Y-83312000D01*
X143764000Y-75406502D02*
X143764000Y-75184000D01*
X140240000Y-78930502D02*
X143764000Y-75406502D01*
X140240000Y-83312000D02*
X140240000Y-78930502D01*
X143764000Y-74961498D02*
X143764000Y-75184000D01*
X142462502Y-73660000D02*
X143764000Y-74961498D01*
X135890000Y-73660000D02*
X142462502Y-73660000D01*
X150876000Y-86868000D02*
X151892000Y-87884000D01*
X150876000Y-83820000D02*
X150876000Y-86868000D01*
X153842001Y-89834001D02*
X154858001Y-89834001D01*
X151892000Y-87884000D02*
X153842001Y-89834001D01*
X154858001Y-89834001D02*
X155448000Y-90424000D01*
X155448000Y-90424000D02*
X155448000Y-96520000D01*
X155448000Y-96520000D02*
X154940000Y-97028000D01*
X148280000Y-97028000D02*
X143708000Y-92456000D01*
X154940000Y-97028000D02*
X148280000Y-97028000D01*
X143708000Y-92456000D02*
X143708000Y-90368000D01*
X143708000Y-90368000D02*
X140716000Y-87376000D01*
X136906000Y-87376000D02*
X135890000Y-86360000D01*
X140716000Y-87376000D02*
X136906000Y-87376000D01*
%TO.N,Net-(C1-Pad1)*%
X141224000Y-75184000D02*
X138176000Y-78232000D01*
X138176000Y-80018002D02*
X135390002Y-82804000D01*
X138176000Y-78232000D02*
X138176000Y-80018002D01*
X128524000Y-82804000D02*
X125730000Y-80010000D01*
X125730000Y-92710000D02*
X125730000Y-93218000D01*
X125730000Y-93218000D02*
X127508000Y-94996000D01*
X137668000Y-94996000D02*
X140208000Y-92456000D01*
X127508000Y-94996000D02*
X137668000Y-94996000D01*
X140208000Y-92456000D02*
X139700000Y-92456000D01*
X139700000Y-92456000D02*
X135128000Y-87884000D01*
X135128000Y-87884000D02*
X131572000Y-87884000D01*
X131064000Y-87376000D02*
X131064000Y-82804000D01*
X131572000Y-87884000D02*
X131064000Y-87376000D01*
X131064000Y-82804000D02*
X128524000Y-82804000D01*
X135390002Y-82804000D02*
X131064000Y-82804000D01*
%TO.N,Net-(C2-Pad1)*%
X147828000Y-73660000D02*
X146304000Y-75184000D01*
X152400000Y-73660000D02*
X147828000Y-73660000D01*
X146304000Y-79248000D02*
X142240000Y-83312000D01*
X146304000Y-75184000D02*
X146304000Y-79248000D01*
X142240000Y-83312000D02*
X142240000Y-85852000D01*
X142240000Y-85852000D02*
X144780000Y-88392000D01*
X147320000Y-88392000D02*
X151892000Y-92964000D01*
X144780000Y-88392000D02*
X147320000Y-88392000D01*
D24*
%TO.N,Net-(D1-Pad1)*%
X118110000Y-82550000D02*
X124460000Y-76200000D01*
X124460000Y-76200000D02*
X125984000Y-76200000D01*
X125984000Y-73914000D02*
X125730000Y-73660000D01*
X125984000Y-76200000D02*
X125984000Y-73914000D01*
X125984000Y-76200000D02*
X133604000Y-76200000D01*
X135890000Y-78486000D02*
X135890000Y-80010000D01*
X133604000Y-76200000D02*
X135890000Y-78486000D01*
D23*
%TO.N,Net-(D2-Pad1)*%
X124460000Y-87630000D02*
X125730000Y-86360000D01*
X118110000Y-87630000D02*
X124460000Y-87630000D01*
X125730000Y-86360000D02*
X125730000Y-86614000D01*
X125730000Y-86614000D02*
X128524000Y-89408000D01*
X132588000Y-89408000D02*
X135890000Y-92710000D01*
X128524000Y-89408000D02*
X132588000Y-89408000D01*
%TO.N,Net-(D5-Pad2)*%
X152400000Y-79756000D02*
X150876000Y-81280000D01*
X152400000Y-78740000D02*
X152400000Y-79756000D01*
%TD*%
M02*
