%TF.GenerationSoftware,KiCad,Pcbnew,(5.1.7)-1*%
%TF.CreationDate,2022-10-26T13:15:12+03:00*%
%TF.ProjectId,power supply,706f7765-7220-4737-9570-706c792e6b69,rev?*%
%TF.SameCoordinates,Original*%
%TF.FileFunction,Legend,Top*%
%TF.FilePolarity,Positive*%
%FSLAX46Y46*%
G04 Gerber Fmt 4.6, Leading zero omitted, Abs format (unit mm)*
G04 Created by KiCad (PCBNEW (5.1.7)-1) date 2022-10-26 13:15:12*
%MOMM*%
%LPD*%
G01*
G04 APERTURE LIST*
%ADD10C,0.120000*%
%ADD11C,0.150000*%
G04 APERTURE END LIST*
D10*
%TO.C,U1*%
X138644000Y-71914000D02*
X148884000Y-71914000D01*
X138644000Y-76555000D02*
X148884000Y-76555000D01*
X138644000Y-71914000D02*
X138644000Y-76555000D01*
X148884000Y-71914000D02*
X148884000Y-76555000D01*
X138644000Y-73424000D02*
X148884000Y-73424000D01*
X141914000Y-71914000D02*
X141914000Y-73424000D01*
X145615000Y-71914000D02*
X145615000Y-73424000D01*
%TO.C,R1*%
X153320000Y-74280000D02*
X153320000Y-78120000D01*
X151480000Y-74280000D02*
X151480000Y-78120000D01*
%TO.C,J2*%
X154432000Y-85344000D02*
X154432000Y-95504000D01*
X155702000Y-85344000D02*
X148082000Y-85344000D01*
X148082000Y-85344000D02*
X148082000Y-95504000D01*
X148082000Y-95504000D02*
X155702000Y-95504000D01*
X155702000Y-95504000D02*
X155702000Y-85344000D01*
%TO.C,J1*%
X120650000Y-80010000D02*
X120650000Y-90170000D01*
X121920000Y-80010000D02*
X114300000Y-80010000D01*
X114300000Y-80010000D02*
X114300000Y-90170000D01*
X114300000Y-90170000D02*
X121920000Y-90170000D01*
X121920000Y-90170000D02*
X121920000Y-80010000D01*
%TO.C,D5*%
X151955837Y-81508870D02*
G75*
G02*
X151956000Y-83590961I-1079837J-1041130D01*
G01*
X149796163Y-81508870D02*
G75*
G03*
X149796000Y-83590961I1079837J-1041130D01*
G01*
X151954608Y-80877665D02*
G75*
G02*
X152111516Y-84110000I-1078608J-1672335D01*
G01*
X149797392Y-80877665D02*
G75*
G03*
X149640484Y-84110000I1078608J-1672335D01*
G01*
X149640000Y-84110000D02*
X149796000Y-84110000D01*
X151956000Y-84110000D02*
X152112000Y-84110000D01*
%TO.C,D4*%
X128090000Y-91240000D02*
X128090000Y-94180000D01*
X128090000Y-94180000D02*
X133530000Y-94180000D01*
X133530000Y-94180000D02*
X133530000Y-91240000D01*
X133530000Y-91240000D02*
X128090000Y-91240000D01*
X127070000Y-92710000D02*
X128090000Y-92710000D01*
X134550000Y-92710000D02*
X133530000Y-92710000D01*
X128990000Y-91240000D02*
X128990000Y-94180000D01*
X129110000Y-91240000D02*
X129110000Y-94180000D01*
X128870000Y-91240000D02*
X128870000Y-94180000D01*
%TO.C,D3*%
X128090000Y-78540000D02*
X128090000Y-81480000D01*
X128090000Y-81480000D02*
X133530000Y-81480000D01*
X133530000Y-81480000D02*
X133530000Y-78540000D01*
X133530000Y-78540000D02*
X128090000Y-78540000D01*
X127070000Y-80010000D02*
X128090000Y-80010000D01*
X134550000Y-80010000D02*
X133530000Y-80010000D01*
X128990000Y-78540000D02*
X128990000Y-81480000D01*
X129110000Y-78540000D02*
X129110000Y-81480000D01*
X128870000Y-78540000D02*
X128870000Y-81480000D01*
%TO.C,D2*%
X128090000Y-84890000D02*
X128090000Y-87830000D01*
X128090000Y-87830000D02*
X133530000Y-87830000D01*
X133530000Y-87830000D02*
X133530000Y-84890000D01*
X133530000Y-84890000D02*
X128090000Y-84890000D01*
X127070000Y-86360000D02*
X128090000Y-86360000D01*
X134550000Y-86360000D02*
X133530000Y-86360000D01*
X128990000Y-84890000D02*
X128990000Y-87830000D01*
X129110000Y-84890000D02*
X129110000Y-87830000D01*
X128870000Y-84890000D02*
X128870000Y-87830000D01*
%TO.C,D1*%
X128090000Y-72190000D02*
X128090000Y-75130000D01*
X128090000Y-75130000D02*
X133530000Y-75130000D01*
X133530000Y-75130000D02*
X133530000Y-72190000D01*
X133530000Y-72190000D02*
X128090000Y-72190000D01*
X127070000Y-73660000D02*
X128090000Y-73660000D01*
X134550000Y-73660000D02*
X133530000Y-73660000D01*
X128990000Y-72190000D02*
X128990000Y-75130000D01*
X129110000Y-72190000D02*
X129110000Y-75130000D01*
X128870000Y-72190000D02*
X128870000Y-75130000D01*
%TO.C,C2*%
X143860000Y-83312000D02*
G75*
G03*
X143860000Y-83312000I-2620000J0D01*
G01*
X141240000Y-82272000D02*
X141240000Y-80732000D01*
X141240000Y-85892000D02*
X141240000Y-84352000D01*
X141200000Y-82272000D02*
X141200000Y-80732000D01*
X141200000Y-85892000D02*
X141200000Y-84352000D01*
X141160000Y-85891000D02*
X141160000Y-84352000D01*
X141160000Y-82272000D02*
X141160000Y-80733000D01*
X141120000Y-85890000D02*
X141120000Y-84352000D01*
X141120000Y-82272000D02*
X141120000Y-80734000D01*
X141080000Y-85888000D02*
X141080000Y-84352000D01*
X141080000Y-82272000D02*
X141080000Y-80736000D01*
X141040000Y-85885000D02*
X141040000Y-84352000D01*
X141040000Y-82272000D02*
X141040000Y-80739000D01*
X141000000Y-85881000D02*
X141000000Y-84352000D01*
X141000000Y-82272000D02*
X141000000Y-80743000D01*
X140960000Y-85877000D02*
X140960000Y-84352000D01*
X140960000Y-82272000D02*
X140960000Y-80747000D01*
X140920000Y-85873000D02*
X140920000Y-84352000D01*
X140920000Y-82272000D02*
X140920000Y-80751000D01*
X140880000Y-85868000D02*
X140880000Y-84352000D01*
X140880000Y-82272000D02*
X140880000Y-80756000D01*
X140840000Y-85862000D02*
X140840000Y-84352000D01*
X140840000Y-82272000D02*
X140840000Y-80762000D01*
X140800000Y-85855000D02*
X140800000Y-84352000D01*
X140800000Y-82272000D02*
X140800000Y-80769000D01*
X140760000Y-85848000D02*
X140760000Y-84352000D01*
X140760000Y-82272000D02*
X140760000Y-80776000D01*
X140720000Y-85840000D02*
X140720000Y-84352000D01*
X140720000Y-82272000D02*
X140720000Y-80784000D01*
X140680000Y-85832000D02*
X140680000Y-84352000D01*
X140680000Y-82272000D02*
X140680000Y-80792000D01*
X140640000Y-85823000D02*
X140640000Y-84352000D01*
X140640000Y-82272000D02*
X140640000Y-80801000D01*
X140600000Y-85813000D02*
X140600000Y-84352000D01*
X140600000Y-82272000D02*
X140600000Y-80811000D01*
X140560000Y-85803000D02*
X140560000Y-84352000D01*
X140560000Y-82272000D02*
X140560000Y-80821000D01*
X140519000Y-85792000D02*
X140519000Y-84352000D01*
X140519000Y-82272000D02*
X140519000Y-80832000D01*
X140479000Y-85780000D02*
X140479000Y-84352000D01*
X140479000Y-82272000D02*
X140479000Y-80844000D01*
X140439000Y-85767000D02*
X140439000Y-84352000D01*
X140439000Y-82272000D02*
X140439000Y-80857000D01*
X140399000Y-85754000D02*
X140399000Y-84352000D01*
X140399000Y-82272000D02*
X140399000Y-80870000D01*
X140359000Y-85740000D02*
X140359000Y-84352000D01*
X140359000Y-82272000D02*
X140359000Y-80884000D01*
X140319000Y-85726000D02*
X140319000Y-84352000D01*
X140319000Y-82272000D02*
X140319000Y-80898000D01*
X140279000Y-85710000D02*
X140279000Y-84352000D01*
X140279000Y-82272000D02*
X140279000Y-80914000D01*
X140239000Y-85694000D02*
X140239000Y-84352000D01*
X140239000Y-82272000D02*
X140239000Y-80930000D01*
X140199000Y-85677000D02*
X140199000Y-84352000D01*
X140199000Y-82272000D02*
X140199000Y-80947000D01*
X140159000Y-85660000D02*
X140159000Y-84352000D01*
X140159000Y-82272000D02*
X140159000Y-80964000D01*
X140119000Y-85641000D02*
X140119000Y-84352000D01*
X140119000Y-82272000D02*
X140119000Y-80983000D01*
X140079000Y-85622000D02*
X140079000Y-84352000D01*
X140079000Y-82272000D02*
X140079000Y-81002000D01*
X140039000Y-85602000D02*
X140039000Y-84352000D01*
X140039000Y-82272000D02*
X140039000Y-81022000D01*
X139999000Y-85580000D02*
X139999000Y-84352000D01*
X139999000Y-82272000D02*
X139999000Y-81044000D01*
X139959000Y-85559000D02*
X139959000Y-84352000D01*
X139959000Y-82272000D02*
X139959000Y-81065000D01*
X139919000Y-85536000D02*
X139919000Y-84352000D01*
X139919000Y-82272000D02*
X139919000Y-81088000D01*
X139879000Y-85512000D02*
X139879000Y-84352000D01*
X139879000Y-82272000D02*
X139879000Y-81112000D01*
X139839000Y-85487000D02*
X139839000Y-84352000D01*
X139839000Y-82272000D02*
X139839000Y-81137000D01*
X139799000Y-85461000D02*
X139799000Y-84352000D01*
X139799000Y-82272000D02*
X139799000Y-81163000D01*
X139759000Y-85434000D02*
X139759000Y-84352000D01*
X139759000Y-82272000D02*
X139759000Y-81190000D01*
X139719000Y-85407000D02*
X139719000Y-84352000D01*
X139719000Y-82272000D02*
X139719000Y-81217000D01*
X139679000Y-85377000D02*
X139679000Y-84352000D01*
X139679000Y-82272000D02*
X139679000Y-81247000D01*
X139639000Y-85347000D02*
X139639000Y-84352000D01*
X139639000Y-82272000D02*
X139639000Y-81277000D01*
X139599000Y-85316000D02*
X139599000Y-84352000D01*
X139599000Y-82272000D02*
X139599000Y-81308000D01*
X139559000Y-85283000D02*
X139559000Y-84352000D01*
X139559000Y-82272000D02*
X139559000Y-81341000D01*
X139519000Y-85249000D02*
X139519000Y-84352000D01*
X139519000Y-82272000D02*
X139519000Y-81375000D01*
X139479000Y-85213000D02*
X139479000Y-84352000D01*
X139479000Y-82272000D02*
X139479000Y-81411000D01*
X139439000Y-85176000D02*
X139439000Y-84352000D01*
X139439000Y-82272000D02*
X139439000Y-81448000D01*
X139399000Y-85138000D02*
X139399000Y-84352000D01*
X139399000Y-82272000D02*
X139399000Y-81486000D01*
X139359000Y-85097000D02*
X139359000Y-84352000D01*
X139359000Y-82272000D02*
X139359000Y-81527000D01*
X139319000Y-85055000D02*
X139319000Y-84352000D01*
X139319000Y-82272000D02*
X139319000Y-81569000D01*
X139279000Y-85011000D02*
X139279000Y-84352000D01*
X139279000Y-82272000D02*
X139279000Y-81613000D01*
X139239000Y-84965000D02*
X139239000Y-84352000D01*
X139239000Y-82272000D02*
X139239000Y-81659000D01*
X139199000Y-84917000D02*
X139199000Y-81707000D01*
X139159000Y-84866000D02*
X139159000Y-81758000D01*
X139119000Y-84812000D02*
X139119000Y-81812000D01*
X139079000Y-84755000D02*
X139079000Y-81869000D01*
X139039000Y-84695000D02*
X139039000Y-81929000D01*
X138999000Y-84631000D02*
X138999000Y-81993000D01*
X138959000Y-84563000D02*
X138959000Y-82061000D01*
X138919000Y-84490000D02*
X138919000Y-82134000D01*
X138879000Y-84410000D02*
X138879000Y-82214000D01*
X138839000Y-84323000D02*
X138839000Y-82301000D01*
X138799000Y-84227000D02*
X138799000Y-82397000D01*
X138759000Y-84117000D02*
X138759000Y-82507000D01*
X138719000Y-83989000D02*
X138719000Y-82635000D01*
X138679000Y-83830000D02*
X138679000Y-82794000D01*
X138639000Y-83596000D02*
X138639000Y-83028000D01*
X144044775Y-84787000D02*
X143544775Y-84787000D01*
X143794775Y-85037000D02*
X143794775Y-84537000D01*
%TO.C,C1*%
X146078000Y-92456000D02*
G75*
G03*
X146078000Y-92456000I-4120000J0D01*
G01*
X141958000Y-88376000D02*
X141958000Y-96536000D01*
X141998000Y-88376000D02*
X141998000Y-96536000D01*
X142038000Y-88376000D02*
X142038000Y-96536000D01*
X142078000Y-88377000D02*
X142078000Y-96535000D01*
X142118000Y-88379000D02*
X142118000Y-96533000D01*
X142158000Y-88380000D02*
X142158000Y-96532000D01*
X142198000Y-88382000D02*
X142198000Y-96530000D01*
X142238000Y-88385000D02*
X142238000Y-96527000D01*
X142278000Y-88388000D02*
X142278000Y-96524000D01*
X142318000Y-88391000D02*
X142318000Y-96521000D01*
X142358000Y-88395000D02*
X142358000Y-96517000D01*
X142398000Y-88399000D02*
X142398000Y-96513000D01*
X142438000Y-88404000D02*
X142438000Y-96508000D01*
X142478000Y-88408000D02*
X142478000Y-96504000D01*
X142518000Y-88414000D02*
X142518000Y-96498000D01*
X142558000Y-88419000D02*
X142558000Y-96493000D01*
X142598000Y-88426000D02*
X142598000Y-96486000D01*
X142638000Y-88432000D02*
X142638000Y-96480000D01*
X142679000Y-88439000D02*
X142679000Y-91416000D01*
X142679000Y-93496000D02*
X142679000Y-96473000D01*
X142719000Y-88446000D02*
X142719000Y-91416000D01*
X142719000Y-93496000D02*
X142719000Y-96466000D01*
X142759000Y-88454000D02*
X142759000Y-91416000D01*
X142759000Y-93496000D02*
X142759000Y-96458000D01*
X142799000Y-88462000D02*
X142799000Y-91416000D01*
X142799000Y-93496000D02*
X142799000Y-96450000D01*
X142839000Y-88471000D02*
X142839000Y-91416000D01*
X142839000Y-93496000D02*
X142839000Y-96441000D01*
X142879000Y-88480000D02*
X142879000Y-91416000D01*
X142879000Y-93496000D02*
X142879000Y-96432000D01*
X142919000Y-88489000D02*
X142919000Y-91416000D01*
X142919000Y-93496000D02*
X142919000Y-96423000D01*
X142959000Y-88499000D02*
X142959000Y-91416000D01*
X142959000Y-93496000D02*
X142959000Y-96413000D01*
X142999000Y-88509000D02*
X142999000Y-91416000D01*
X142999000Y-93496000D02*
X142999000Y-96403000D01*
X143039000Y-88520000D02*
X143039000Y-91416000D01*
X143039000Y-93496000D02*
X143039000Y-96392000D01*
X143079000Y-88531000D02*
X143079000Y-91416000D01*
X143079000Y-93496000D02*
X143079000Y-96381000D01*
X143119000Y-88542000D02*
X143119000Y-91416000D01*
X143119000Y-93496000D02*
X143119000Y-96370000D01*
X143159000Y-88554000D02*
X143159000Y-91416000D01*
X143159000Y-93496000D02*
X143159000Y-96358000D01*
X143199000Y-88567000D02*
X143199000Y-91416000D01*
X143199000Y-93496000D02*
X143199000Y-96345000D01*
X143239000Y-88579000D02*
X143239000Y-91416000D01*
X143239000Y-93496000D02*
X143239000Y-96333000D01*
X143279000Y-88593000D02*
X143279000Y-91416000D01*
X143279000Y-93496000D02*
X143279000Y-96319000D01*
X143319000Y-88606000D02*
X143319000Y-91416000D01*
X143319000Y-93496000D02*
X143319000Y-96306000D01*
X143359000Y-88621000D02*
X143359000Y-91416000D01*
X143359000Y-93496000D02*
X143359000Y-96291000D01*
X143399000Y-88635000D02*
X143399000Y-91416000D01*
X143399000Y-93496000D02*
X143399000Y-96277000D01*
X143439000Y-88651000D02*
X143439000Y-91416000D01*
X143439000Y-93496000D02*
X143439000Y-96261000D01*
X143479000Y-88666000D02*
X143479000Y-91416000D01*
X143479000Y-93496000D02*
X143479000Y-96246000D01*
X143519000Y-88682000D02*
X143519000Y-91416000D01*
X143519000Y-93496000D02*
X143519000Y-96230000D01*
X143559000Y-88699000D02*
X143559000Y-91416000D01*
X143559000Y-93496000D02*
X143559000Y-96213000D01*
X143599000Y-88716000D02*
X143599000Y-91416000D01*
X143599000Y-93496000D02*
X143599000Y-96196000D01*
X143639000Y-88734000D02*
X143639000Y-91416000D01*
X143639000Y-93496000D02*
X143639000Y-96178000D01*
X143679000Y-88752000D02*
X143679000Y-91416000D01*
X143679000Y-93496000D02*
X143679000Y-96160000D01*
X143719000Y-88770000D02*
X143719000Y-91416000D01*
X143719000Y-93496000D02*
X143719000Y-96142000D01*
X143759000Y-88790000D02*
X143759000Y-91416000D01*
X143759000Y-93496000D02*
X143759000Y-96122000D01*
X143799000Y-88809000D02*
X143799000Y-91416000D01*
X143799000Y-93496000D02*
X143799000Y-96103000D01*
X143839000Y-88829000D02*
X143839000Y-91416000D01*
X143839000Y-93496000D02*
X143839000Y-96083000D01*
X143879000Y-88850000D02*
X143879000Y-91416000D01*
X143879000Y-93496000D02*
X143879000Y-96062000D01*
X143919000Y-88872000D02*
X143919000Y-91416000D01*
X143919000Y-93496000D02*
X143919000Y-96040000D01*
X143959000Y-88894000D02*
X143959000Y-91416000D01*
X143959000Y-93496000D02*
X143959000Y-96018000D01*
X143999000Y-88916000D02*
X143999000Y-91416000D01*
X143999000Y-93496000D02*
X143999000Y-95996000D01*
X144039000Y-88939000D02*
X144039000Y-91416000D01*
X144039000Y-93496000D02*
X144039000Y-95973000D01*
X144079000Y-88963000D02*
X144079000Y-91416000D01*
X144079000Y-93496000D02*
X144079000Y-95949000D01*
X144119000Y-88987000D02*
X144119000Y-91416000D01*
X144119000Y-93496000D02*
X144119000Y-95925000D01*
X144159000Y-89012000D02*
X144159000Y-91416000D01*
X144159000Y-93496000D02*
X144159000Y-95900000D01*
X144199000Y-89038000D02*
X144199000Y-91416000D01*
X144199000Y-93496000D02*
X144199000Y-95874000D01*
X144239000Y-89064000D02*
X144239000Y-91416000D01*
X144239000Y-93496000D02*
X144239000Y-95848000D01*
X144279000Y-89091000D02*
X144279000Y-91416000D01*
X144279000Y-93496000D02*
X144279000Y-95821000D01*
X144319000Y-89118000D02*
X144319000Y-91416000D01*
X144319000Y-93496000D02*
X144319000Y-95794000D01*
X144359000Y-89147000D02*
X144359000Y-91416000D01*
X144359000Y-93496000D02*
X144359000Y-95765000D01*
X144399000Y-89176000D02*
X144399000Y-91416000D01*
X144399000Y-93496000D02*
X144399000Y-95736000D01*
X144439000Y-89206000D02*
X144439000Y-91416000D01*
X144439000Y-93496000D02*
X144439000Y-95706000D01*
X144479000Y-89236000D02*
X144479000Y-91416000D01*
X144479000Y-93496000D02*
X144479000Y-95676000D01*
X144519000Y-89267000D02*
X144519000Y-91416000D01*
X144519000Y-93496000D02*
X144519000Y-95645000D01*
X144559000Y-89300000D02*
X144559000Y-91416000D01*
X144559000Y-93496000D02*
X144559000Y-95612000D01*
X144599000Y-89332000D02*
X144599000Y-91416000D01*
X144599000Y-93496000D02*
X144599000Y-95580000D01*
X144639000Y-89366000D02*
X144639000Y-91416000D01*
X144639000Y-93496000D02*
X144639000Y-95546000D01*
X144679000Y-89401000D02*
X144679000Y-91416000D01*
X144679000Y-93496000D02*
X144679000Y-95511000D01*
X144719000Y-89437000D02*
X144719000Y-91416000D01*
X144719000Y-93496000D02*
X144719000Y-95475000D01*
X144759000Y-89473000D02*
X144759000Y-95439000D01*
X144799000Y-89511000D02*
X144799000Y-95401000D01*
X144839000Y-89549000D02*
X144839000Y-95363000D01*
X144879000Y-89589000D02*
X144879000Y-95323000D01*
X144919000Y-89630000D02*
X144919000Y-95282000D01*
X144959000Y-89672000D02*
X144959000Y-95240000D01*
X144999000Y-89715000D02*
X144999000Y-95197000D01*
X145039000Y-89759000D02*
X145039000Y-95153000D01*
X145079000Y-89805000D02*
X145079000Y-95107000D01*
X145119000Y-89852000D02*
X145119000Y-95060000D01*
X145159000Y-89900000D02*
X145159000Y-95012000D01*
X145199000Y-89951000D02*
X145199000Y-94961000D01*
X145239000Y-90002000D02*
X145239000Y-94910000D01*
X145279000Y-90056000D02*
X145279000Y-94856000D01*
X145319000Y-90111000D02*
X145319000Y-94801000D01*
X145359000Y-90169000D02*
X145359000Y-94743000D01*
X145399000Y-90228000D02*
X145399000Y-94684000D01*
X145439000Y-90290000D02*
X145439000Y-94622000D01*
X145479000Y-90354000D02*
X145479000Y-94558000D01*
X145519000Y-90422000D02*
X145519000Y-94490000D01*
X145559000Y-90492000D02*
X145559000Y-94420000D01*
X145599000Y-90566000D02*
X145599000Y-94346000D01*
X145639000Y-90643000D02*
X145639000Y-94269000D01*
X145679000Y-90725000D02*
X145679000Y-94187000D01*
X145719000Y-90811000D02*
X145719000Y-94101000D01*
X145759000Y-90904000D02*
X145759000Y-94008000D01*
X145799000Y-91003000D02*
X145799000Y-93909000D01*
X145839000Y-91110000D02*
X145839000Y-93802000D01*
X145879000Y-91227000D02*
X145879000Y-93685000D01*
X145919000Y-91358000D02*
X145919000Y-93554000D01*
X145959000Y-91508000D02*
X145959000Y-93404000D01*
X145999000Y-91688000D02*
X145999000Y-93224000D01*
X146039000Y-91923000D02*
X146039000Y-92989000D01*
X137548302Y-90141000D02*
X138348302Y-90141000D01*
X137948302Y-89741000D02*
X137948302Y-90541000D01*
%TO.C,U1*%
D11*
X143002095Y-70366380D02*
X143002095Y-71175904D01*
X143049714Y-71271142D01*
X143097333Y-71318761D01*
X143192571Y-71366380D01*
X143383047Y-71366380D01*
X143478285Y-71318761D01*
X143525904Y-71271142D01*
X143573523Y-71175904D01*
X143573523Y-70366380D01*
X144573523Y-71366380D02*
X144002095Y-71366380D01*
X144287809Y-71366380D02*
X144287809Y-70366380D01*
X144192571Y-70509238D01*
X144097333Y-70604476D01*
X144002095Y-70652095D01*
%TO.C,R1*%
X154772380Y-76366666D02*
X154296190Y-76700000D01*
X154772380Y-76938095D02*
X153772380Y-76938095D01*
X153772380Y-76557142D01*
X153820000Y-76461904D01*
X153867619Y-76414285D01*
X153962857Y-76366666D01*
X154105714Y-76366666D01*
X154200952Y-76414285D01*
X154248571Y-76461904D01*
X154296190Y-76557142D01*
X154296190Y-76938095D01*
X154772380Y-75414285D02*
X154772380Y-75985714D01*
X154772380Y-75700000D02*
X153772380Y-75700000D01*
X153915238Y-75795238D01*
X154010476Y-75890476D01*
X154058095Y-75985714D01*
%TO.C,J2*%
X146264380Y-90757333D02*
X146978666Y-90757333D01*
X147121523Y-90804952D01*
X147216761Y-90900190D01*
X147264380Y-91043047D01*
X147264380Y-91138285D01*
X146359619Y-90328761D02*
X146312000Y-90281142D01*
X146264380Y-90185904D01*
X146264380Y-89947809D01*
X146312000Y-89852571D01*
X146359619Y-89804952D01*
X146454857Y-89757333D01*
X146550095Y-89757333D01*
X146692952Y-89804952D01*
X147264380Y-90376380D01*
X147264380Y-89757333D01*
%TO.C,J1*%
X112482380Y-85423333D02*
X113196666Y-85423333D01*
X113339523Y-85470952D01*
X113434761Y-85566190D01*
X113482380Y-85709047D01*
X113482380Y-85804285D01*
X113482380Y-84423333D02*
X113482380Y-84994761D01*
X113482380Y-84709047D02*
X112482380Y-84709047D01*
X112625238Y-84804285D01*
X112720476Y-84899523D01*
X112768095Y-84994761D01*
%TO.C,H4*%
X114554095Y-93564380D02*
X114554095Y-92564380D01*
X114554095Y-93040571D02*
X115125523Y-93040571D01*
X115125523Y-93564380D02*
X115125523Y-92564380D01*
X116030285Y-92897714D02*
X116030285Y-93564380D01*
X115792190Y-92516761D02*
X115554095Y-93231047D01*
X116173142Y-93231047D01*
%TO.C,H3*%
X157734095Y-72228380D02*
X157734095Y-71228380D01*
X157734095Y-71704571D02*
X158305523Y-71704571D01*
X158305523Y-72228380D02*
X158305523Y-71228380D01*
X158686476Y-71228380D02*
X159305523Y-71228380D01*
X158972190Y-71609333D01*
X159115047Y-71609333D01*
X159210285Y-71656952D01*
X159257904Y-71704571D01*
X159305523Y-71799809D01*
X159305523Y-72037904D01*
X159257904Y-72133142D01*
X159210285Y-72180761D01*
X159115047Y-72228380D01*
X158829333Y-72228380D01*
X158734095Y-72180761D01*
X158686476Y-72133142D01*
%TO.C,H2*%
X157734095Y-93564380D02*
X157734095Y-92564380D01*
X157734095Y-93040571D02*
X158305523Y-93040571D01*
X158305523Y-93564380D02*
X158305523Y-92564380D01*
X158734095Y-92659619D02*
X158781714Y-92612000D01*
X158876952Y-92564380D01*
X159115047Y-92564380D01*
X159210285Y-92612000D01*
X159257904Y-92659619D01*
X159305523Y-92754857D01*
X159305523Y-92850095D01*
X159257904Y-92992952D01*
X158686476Y-93564380D01*
X159305523Y-93564380D01*
%TO.C,H1*%
X114554095Y-72228380D02*
X114554095Y-71228380D01*
X114554095Y-71704571D02*
X115125523Y-71704571D01*
X115125523Y-72228380D02*
X115125523Y-71228380D01*
X116125523Y-72228380D02*
X115554095Y-72228380D01*
X115839809Y-72228380D02*
X115839809Y-71228380D01*
X115744571Y-71371238D01*
X115649333Y-71466476D01*
X115554095Y-71514095D01*
%TO.C,D5*%
X148368380Y-83288095D02*
X147368380Y-83288095D01*
X147368380Y-83050000D01*
X147416000Y-82907142D01*
X147511238Y-82811904D01*
X147606476Y-82764285D01*
X147796952Y-82716666D01*
X147939809Y-82716666D01*
X148130285Y-82764285D01*
X148225523Y-82811904D01*
X148320761Y-82907142D01*
X148368380Y-83050000D01*
X148368380Y-83288095D01*
X147368380Y-81811904D02*
X147368380Y-82288095D01*
X147844571Y-82335714D01*
X147796952Y-82288095D01*
X147749333Y-82192857D01*
X147749333Y-81954761D01*
X147796952Y-81859523D01*
X147844571Y-81811904D01*
X147939809Y-81764285D01*
X148177904Y-81764285D01*
X148273142Y-81811904D01*
X148320761Y-81859523D01*
X148368380Y-81954761D01*
X148368380Y-82192857D01*
X148320761Y-82288095D01*
X148273142Y-82335714D01*
%TO.C,D4*%
X130071904Y-90692380D02*
X130071904Y-89692380D01*
X130310000Y-89692380D01*
X130452857Y-89740000D01*
X130548095Y-89835238D01*
X130595714Y-89930476D01*
X130643333Y-90120952D01*
X130643333Y-90263809D01*
X130595714Y-90454285D01*
X130548095Y-90549523D01*
X130452857Y-90644761D01*
X130310000Y-90692380D01*
X130071904Y-90692380D01*
X131500476Y-90025714D02*
X131500476Y-90692380D01*
X131262380Y-89644761D02*
X131024285Y-90359047D01*
X131643333Y-90359047D01*
X125468095Y-91062380D02*
X125468095Y-90062380D01*
X126039523Y-91062380D02*
X125610952Y-90490952D01*
X126039523Y-90062380D02*
X125468095Y-90633809D01*
%TO.C,D3*%
X130071904Y-77992380D02*
X130071904Y-76992380D01*
X130310000Y-76992380D01*
X130452857Y-77040000D01*
X130548095Y-77135238D01*
X130595714Y-77230476D01*
X130643333Y-77420952D01*
X130643333Y-77563809D01*
X130595714Y-77754285D01*
X130548095Y-77849523D01*
X130452857Y-77944761D01*
X130310000Y-77992380D01*
X130071904Y-77992380D01*
X130976666Y-76992380D02*
X131595714Y-76992380D01*
X131262380Y-77373333D01*
X131405238Y-77373333D01*
X131500476Y-77420952D01*
X131548095Y-77468571D01*
X131595714Y-77563809D01*
X131595714Y-77801904D01*
X131548095Y-77897142D01*
X131500476Y-77944761D01*
X131405238Y-77992380D01*
X131119523Y-77992380D01*
X131024285Y-77944761D01*
X130976666Y-77897142D01*
X125468095Y-78362380D02*
X125468095Y-77362380D01*
X126039523Y-78362380D02*
X125610952Y-77790952D01*
X126039523Y-77362380D02*
X125468095Y-77933809D01*
%TO.C,D2*%
X130071904Y-84342380D02*
X130071904Y-83342380D01*
X130310000Y-83342380D01*
X130452857Y-83390000D01*
X130548095Y-83485238D01*
X130595714Y-83580476D01*
X130643333Y-83770952D01*
X130643333Y-83913809D01*
X130595714Y-84104285D01*
X130548095Y-84199523D01*
X130452857Y-84294761D01*
X130310000Y-84342380D01*
X130071904Y-84342380D01*
X131024285Y-83437619D02*
X131071904Y-83390000D01*
X131167142Y-83342380D01*
X131405238Y-83342380D01*
X131500476Y-83390000D01*
X131548095Y-83437619D01*
X131595714Y-83532857D01*
X131595714Y-83628095D01*
X131548095Y-83770952D01*
X130976666Y-84342380D01*
X131595714Y-84342380D01*
X125468095Y-84712380D02*
X125468095Y-83712380D01*
X126039523Y-84712380D02*
X125610952Y-84140952D01*
X126039523Y-83712380D02*
X125468095Y-84283809D01*
%TO.C,D1*%
X130071904Y-71642380D02*
X130071904Y-70642380D01*
X130310000Y-70642380D01*
X130452857Y-70690000D01*
X130548095Y-70785238D01*
X130595714Y-70880476D01*
X130643333Y-71070952D01*
X130643333Y-71213809D01*
X130595714Y-71404285D01*
X130548095Y-71499523D01*
X130452857Y-71594761D01*
X130310000Y-71642380D01*
X130071904Y-71642380D01*
X131595714Y-71642380D02*
X131024285Y-71642380D01*
X131310000Y-71642380D02*
X131310000Y-70642380D01*
X131214761Y-70785238D01*
X131119523Y-70880476D01*
X131024285Y-70928095D01*
X125468095Y-72012380D02*
X125468095Y-71012380D01*
X126039523Y-72012380D02*
X125610952Y-71440952D01*
X126039523Y-71012380D02*
X125468095Y-71583809D01*
%TO.C,C2*%
X141073333Y-87419142D02*
X141025714Y-87466761D01*
X140882857Y-87514380D01*
X140787619Y-87514380D01*
X140644761Y-87466761D01*
X140549523Y-87371523D01*
X140501904Y-87276285D01*
X140454285Y-87085809D01*
X140454285Y-86942952D01*
X140501904Y-86752476D01*
X140549523Y-86657238D01*
X140644761Y-86562000D01*
X140787619Y-86514380D01*
X140882857Y-86514380D01*
X141025714Y-86562000D01*
X141073333Y-86609619D01*
X141454285Y-86609619D02*
X141501904Y-86562000D01*
X141597142Y-86514380D01*
X141835238Y-86514380D01*
X141930476Y-86562000D01*
X141978095Y-86609619D01*
X142025714Y-86704857D01*
X142025714Y-86800095D01*
X141978095Y-86942952D01*
X141406666Y-87514380D01*
X142025714Y-87514380D01*
%TO.C,C1*%
X141791333Y-87563142D02*
X141743714Y-87610761D01*
X141600857Y-87658380D01*
X141505619Y-87658380D01*
X141362761Y-87610761D01*
X141267523Y-87515523D01*
X141219904Y-87420285D01*
X141172285Y-87229809D01*
X141172285Y-87086952D01*
X141219904Y-86896476D01*
X141267523Y-86801238D01*
X141362761Y-86706000D01*
X141505619Y-86658380D01*
X141600857Y-86658380D01*
X141743714Y-86706000D01*
X141791333Y-86753619D01*
X142743714Y-87658380D02*
X142172285Y-87658380D01*
X142458000Y-87658380D02*
X142458000Y-86658380D01*
X142362761Y-86801238D01*
X142267523Y-86896476D01*
X142172285Y-86944095D01*
%TD*%
M02*
